{"title":"Ishqedarriyaan (2015) Pre DvD Rip - XviD - [1CD] - Team IcTv Exc","uid":11991471,"size":737372738,"categoryP":"video","categoryS":"movies","magnet":"?xt=urn:btih:6d99320e0e91f259cc0bc2acad649a8021b41e8f&amp;dn=Ishqedarriyaan+%282015%29+Pre+DvD+Rip+-+XviD+-+%5B1CD%5D+-+Team+IcTv+Exc&amp;tr=udp%3A%2F%2Ftracker.openbittorrent.com%3A80&amp;tr=udp%3A%2F%2Fopen.demonii.com%3A1337&amp;tr=udp%3A%2F%2Ftracker.coppersurfer.tk%3A6969&amp;tr=udp%3A%2F%2Fexodus.desync.com%3A6969","seeders":1,"leechers":2,"uploader":"SS132203","files":3,"time":1433517903,"description":"Ishqedarriyaan (2015) Pre DvD Rip - XviD - [1CD] - Team IcTv Exclusive\n &lt;a href=&quot;\nhttp://imgsparrow.co/image/47&quot; rel=&quot;nofollow&quot; target=&quot;_NEW&quot;&gt;\nhttp://imgsparrow.co/image/47&lt;/a&gt;\n &lt;a href=&quot;\nhttp://imgsparrow.co/image/q5&quot; rel=&quot;nofollow&quot; target=&quot;_NEW&quot;&gt;\nhttp://imgsparrow.co/image/q5&lt;/a&gt;\n\nInfo : - \n\nAll Credit Goes To Intellect Clever &amp; IcTv\nSample Within Torrent\n\nMovie Info\nBanner : Junglee Pictures\nYear : 2015\nCast : Mimoh Chakraborty, Mohit Dutta, Evelyn Sharma\nVideo: XviD\nAudio : MP3\nGenre : Comedy/Drama\nSubtitles :nope\nResolution : x\nRuntime : 2hr 06min XX\nSource : Team IcTv\n\nFormat                      : AVI\nFormat/Info                 : Audio Video Interleave\nFile size                   : 692 MiB\nDuration                    : 2h 6mn\nOverall bit rate            : 768 Kbps\n\nVideo\nID                          : 0\nFormat                      : MPEG-4 Visual\nFormat profile              : Advanced Simple@L5\nFormat settings, BVOP       : 2\nFormat settings, QPel       : No\nFormat settings, GMC        : No warppoints\nFormat settings, Matrix     : Default (H.263)\nCodec ID                    : XVID\nCodec ID/Hint               : XviD\nDuration                    : 2h 6mn\nBit rate                    : 634 Kbps\nWidth                       : 640 pixels\nHeight                      : 272 pixels\nDisplay aspect ratio        : 2.35:1\nFrame rate                  : 25.000 fps\nColor space                 : YUV\nChroma subsampling          : 4:2:0\nBit depth                   : 8 bits\nScan type                   : Progressive\nCompression mode            : Lossy\nBits/(Pixel*Frame)          : 0.146\nStream size                 : 572 MiB (83%)\n\nAudio\nID                          : 1\nFormat                      : MPEG Audio\nFormat version              : Version 1\nFormat profile              : Layer 3\nMode                        : Joint stereo\nCodec ID                    : 55\nCodec ID/Hint               : MP3\nDuration                    : 2h 6mn\nBit rate mode               : Constant\nBit rate                    : 128 Kbps\nChannel(s)                  : 2 channels\nSampling rate               : 48.0 KHz\nCompression mode            : Lossy\nStream size                 : 115 MiB (17%)\n\nScreens : - \n &lt;a href=&quot;\nhttp://imgsparrow.co/image/qR&quot; rel=&quot;nofollow&quot; target=&quot;_NEW&quot;&gt;\nhttp://imgsparrow.co/image/qR&lt;/a&gt; &lt;a href=&quot;\nhttp://imgsparrow.co/image/qv&quot; rel=&quot;nofollow&quot; target=&quot;_NEW&quot;&gt;\nhttp://imgsparrow.co/image/qv&lt;/a&gt; &lt;a href=&quot;\nhttp://imgsparrow.co/image/qx&quot; rel=&quot;nofollow&quot; target=&quot;_NEW&quot;&gt;\nhttp://imgsparrow.co/image/qx&lt;/a&gt; &lt;a href=&quot;\nhttp://imgsparrow.co/image/qC&quot; rel=&quot;nofollow&quot; target=&quot;_NEW&quot;&gt;\nhttp://imgsparrow.co/image/qC&lt;/a&gt; &lt;a href=&quot;\nhttp://imgsparrow.co/image/q1&quot; rel=&quot;nofollow&quot; target=&quot;_NEW&quot;&gt;\nhttp://imgsparrow.co/image/q1&lt;/a&gt; &lt;a href=&quot;\nhttp://imgsparrow.co/image/z6&quot; rel=&quot;nofollow&quot; target=&quot;_NEW&quot;&gt;\nhttp://imgsparrow.co/image/z6&lt;/a&gt; &lt;a href=&quot;\nhttp://imgsparrow.co/image/z8&quot; rel=&quot;nofollow&quot; target=&quot;_NEW&quot;&gt;\nhttp://imgsparrow.co/image/z8&lt;/a&gt; &lt;a href=&quot;\nhttp://imgsparrow.co/image/z9&quot; rel=&quot;nofollow&quot; target=&quot;_NEW&quot;&gt;\nhttp://imgsparrow.co/image/z9&lt;/a&gt; &lt;a href=&quot;\nhttp://imgsparrow.co/image/zL&quot; rel=&quot;nofollow&quot; target=&quot;_NEW&quot;&gt;\nhttp://imgsparrow.co/image/zL&lt;/a&gt; &lt;a href=&quot;\nhttp://imgsparrow.co/image/zN&quot; rel=&quot;nofollow&quot; target=&quot;_NEW&quot;&gt;\nhttp://imgsparrow.co/image/zN&lt;/a&gt;\n &lt;a href=&quot;\nhttp://imgsparrow.co/image/N2&quot; rel=&quot;nofollow&quot; target=&quot;_NEW&quot;&gt;\nhttp://imgsparrow.co/image/N2&lt;/a&gt;","torrent":{"xt":"urn:btih:6d99320e0e91f259cc0bc2acad649a8021b41e8f","amp;dn":"Ishqedarriyaan+%282015%29+Pre+DvD+Rip+-+XviD+-+%5B1CD%5D+-+Team+IcTv+Exc","amp;tr":["udp%3A%2F%2Ftracker.openbittorrent.com%3A80","udp%3A%2F%2Fopen.demonii.com%3A1337","udp%3A%2F%2Ftracker.coppersurfer.tk%3A6969","udp%3A%2F%2Fexodus.desync.com%3A6969"],"infoHash":"6d99320e0e91f259cc0bc2acad649a8021b41e8f","infoHashBuffer":{"type":"Buffer","data":[109,153,50,14,14,145,242,89,204,11,194,172,173,100,154,128,33,180,30,143]},"announce":[],"urlList":[]}}